SplineFontDB: 3.2
FontName: 8BITWONDERNominal
FullName: 8BIT WONDER Nominal
FamilyName: 8BIT WONDER
Weight: Book
Copyright: (c)2001 Joiro Hatgaya | Freeware, but look at readme file. | JOIRO@HOTMAIL.COM
Version: 0.70 | 26.01.2001
ItalicAngle: 0
UnderlinePosition: 0
UnderlineWidth: 0
Ascent: 300
Descent: 0
InvalidEm: 0
sfntRevision: 0x00010000
LayerCount: 2
Layer: 0 1 "Arri+AOgA-re" 1
Layer: 1 1 "Avant" 0
XUID: [1021 810 -1645463926 16267473]
StyleMap: 0x0040
FSType: 2
OS2Version: 3
OS2_WeightWidthSlopeOnly: 0
OS2_UseTypoMetrics: 0
CreationTime: 980541154
ModificationTime: 1684689493
PfmFamily: 81
TTFWeight: 400
TTFWidth: 5
LineGap: 0
VLineGap: 0
Panose: 0 0 4 0 0 0 0 0 0 0
OS2TypoAscent: 300
OS2TypoAOffset: 0
OS2TypoDescent: 0
OS2TypoDOffset: 0
OS2TypoLinegap: 0
OS2WinAscent: 300
OS2WinAOffset: 0
OS2WinDescent: 0
OS2WinDOffset: 0
HheadAscent: 300
HheadAOffset: 0
HheadDescent: 0
HheadDOffset: 0
OS2SubXSize: 210
OS2SubYSize: 195
OS2SubXOff: 0
OS2SubYOff: 43
OS2SupXSize: 210
OS2SupYSize: 195
OS2SupXOff: 0
OS2SupYOff: 136
OS2StrikeYSize: 15
OS2StrikeYPos: 78
OS2CapHeight: 250
OS2XHeight: -1
OS2Vendor: 'MACR'
OS2CodePages: 00000001.00000000
OS2UnicodeRanges: 00000003.00000000.00000000.00000000
DEI: 91125
TtTable: prep
PUSHW_1
 10
CALL
NPUSHB
 13
 8
 8
 7
 7
 6
 6
 5
 5
 1
 1
 0
 0
 1
SCANTYPE
PUSHW_1
 511
SCANCTRL
RCVT
ROUND[Grey]
WCVTP
RCVT
ROUND[Grey]
WCVTP
RCVT
ROUND[Grey]
WCVTP
RCVT
ROUND[Grey]
WCVTP
RCVT
ROUND[Grey]
WCVTP
RCVT
ROUND[Grey]
WCVTP
PUSHB_4
 4
 3
 70
 0
CALL
PUSHB_2
 2
 2
RCVT
ROUND[Grey]
WCVTP
PUSHB_2
 3
 3
RCVT
ROUND[Grey]
WCVTP
EndTTInstrs
TtTable: fpgm
NPUSHB
 1
 0
FDEF
SROUND
RCVT
DUP
PUSHB_1
 3
CINDEX
RCVT
SWAP
SUB
ROUND[Grey]
RTG
SWAP
ROUND[Grey]
ADD
WCVTP
ENDF
PUSHW_1
 10
FDEF
MPPEM
PUSHW_1
 3
LT
IF
PUSHB_2
 1
 1
INSTCTRL
EIF
PUSHW_1
 511
SCANCTRL
PUSHW_1
 68
SCVTCI
PUSHW_2
 3
 3
SDS
SDB
ENDF
PUSHW_1
 11
FDEF
DUP
DUP
RCVT
ROUND[Black]
WCVTP
PUSHB_1
 1
ADD
ENDF
PUSHW_1
 12
FDEF
PUSHW_1
 11
LOOPCALL
POP
ENDF
PUSHW_1
 13
FDEF
DUP
GC[cur]
PUSHB_1
 3

StartChar: .notdef
Encoding: 65536 -1 0
Width: 150
GlyphClass: 1
Flags: W
LayerCount: 2
Fore
SplineSet
19 0 m 1,0,-1
 19 300 l 1,1,-1
 131 300 l 1,2,-1
 131 0 l 1,3,-1
 19 0 l 1,0,-1
38 19 m 1,4,-1
 113 19 l 1,5,-1
 113 281 l 1,6,-1
 38 281 l 1,7,-1
 38 19 l 1,4,-1
EndSplineSet
Validated: 1
EndChar

StartChar: numbersign
Encoding: 35 35 4
Width: 300
GlyphClass: 1
Flags: W
LayerCount: 2
Fore
SplineSet
300 0 m 1,0,-1
 0 0 l 1,1,-1
 0 300 l 1,2,-1
 300 300 l 1,3,-1
 300 0 l 1,0,-1
250 50 m 1,4,-1
 250 250 l 1,5,-1
 50 250 l 1,6,-1
 50 50 l 1,7,-1
 250 50 l 1,4,-1
EndSplineSet
Validated: 1
EndChar

StartChar: parenleft
Encoding: 40 40 5
Width: 150
GlyphClass: 1
Flags: W
LayerCount: 2
Fore
SplineSet
150 0 m 1,0,-1
 25 0 l 1,1,-1
 25 25 l 1,2,-1
 0 25 l 1,3,-1
 0 225 l 1,4,-1
 25 225 l 1,5,-1
 25 250 l 1,6,-1
 150 250 l 1,7,-1
 150 200 l 1,8,-1
 100 200 l 1,9,-1
 100 50 l 1,10,-1
 150 50 l 1,11,-1
 150 0 l 1,0,-1
EndSplineSet
Validated: 1
EndChar

StartChar: parenright
Encoding: 41 41 6
Width: 150
GlyphClass: 1
Flags: W
LayerCount: 2
Fore
SplineSet
150 25 m 1,0,-1
 125 25 l 1,1,-1
 125 0 l 1,2,-1
 0 0 l 1,3,-1
 0 50 l 1,4,-1
 50 50 l 1,5,-1
 50 200 l 1,6,-1
 0 200 l 1,7,-1
 0 250 l 1,8,-1
 125 250 l 1,9,-1
 125 225 l 1,10,-1
 150 225 l 1,11,-1
 150 25 l 1,0,-1
EndSplineSet
Validated: 1
EndChar

StartChar: asterisk
Encoding: 42 42 7
Width: 300
GlyphClass: 1
Flags: W
LayerCount: 2
Fore
SplineSet
250 220 m 1,0,-1
 230 200 l 1,1,-1
 220 200 l 1,2,-1
 200 220 l 1,3,-1
 200 230 l 1,4,-1
 220 250 l 1,5,-1
 230 250 l 1,6,-1
 250 230 l 1,7,-1
 250 220 l 1,0,-1
200 165 m 1,8,-1
 185 150 l 1,9,-1
 165 150 l 1,10,-1
 150 165 l 1,11,-1
 150 185 l 1,12,-1
 165 200 l 1,13,-1
 185 200 l 1,14,-1
 200 185 l 1,15,-1
 200 165 l 1,8,-1
150 110 m 1,16,-1
 140 100 l 1,17,-1
 110 100 l 1,18,-1
 100 110 l 1,19,-1
 100 140 l 1,20,-1
 110 150 l 1,21,-1
 140 150 l 1,22,-1
 150 140 l 1,23,-1
 150 110 l 1,16,-1
50 220 m 1,24,-1
 30 200 l 1,25,-1
 20 200 l 1,26,-1
 0 220 l 1,27,-1
 0 230 l 1,28,-1
 20 250 l 1,29,-1
 30 250 l 1,30,-1
 50 230 l 1,31,-1
 50 220 l 1,24,-1
100 165 m 1,32,-1
 85 150 l 1,33,-1
 65 150 l 1,34,-1
 50 165 l 1,35,-1
 50 185 l 1,36,-1
 65 200 l 1,37,-1
 85 200 l 1,38,-1
 100 185 l 1,39,-1
 100 165 l 1,32,-1
200 65 m 1,40,-1
 185 50 l 1,41,-1
 165 50 l 1,42,-1
 150 65 l 1,43,-1
 150 85 l 1,44,-1
 165 100 l 1,45,-1
 185 100 l 1,46,-1
 200 85 l 1,47,-1
 200 65 l 1,40,-1
250 20 m 1,48,-1
 230 0 l 1,49,-1
 220 0 l 1,50,-1
 200 20 l 1,51,-1
 200 30 l 1,52,-1
 220 50 l 1,53,-1
 230 50 l 1,54,-1
 250 30 l 1,55,-1
 250 20 l 1,48,-1
100 65 m 1,56,-1
 85 50 l 1,57,-1
 65 50 l 1,58,-1
 50 65 l 1,59,-1
 50 85 l 1,60,-1
 65 100 l 1,61,-1
 85 100 l 1,62,-1
 100 85 l 1,63,-1
 100 65 l 1,56,-1
50 20 m 1,64,-1
 30 0 l 1,65,-1
 20 0 l 1,66,-1
 0 20 l 1,67,-1
 0 30 l 1,68,-1
 20 50 l 1,69,-1
 30 50 l 1,70,-1
 50 30 l 1,71,-1
 50 20 l 1,64,-1
EndSplineSet
Validated: 1
EndChar

StartChar: zero
Encoding: 48 48 8
Width: 300
GlyphClass: 1
Flags: W
LayerCount: 2
Fore
SplineSet
250 25 m 1,0,-1
 225 25 l 1,1,-1
 225 0 l 1,2,-1
 25 0 l 1,3,-1
 25 25 l 1,4,-1
 0 25 l 1,5,-1
 0 225 l 1,6,-1
 25 225 l 1,7,-1
 25 250 l 1,8,-1
 225 250 l 1,9,-1
 225 225 l 1,10,-1
 250 225 l 1,11,-1
 250 25 l 1,0,-1
150 50 m 1,12,-1
 150 200 l 1,13,-1
 100 200 l 1,14,-1
 100 50 l 1,15,-1
 150 50 l 1,12,-1
EndSplineSet
Validated: 1
EndChar

StartChar: one
Encoding: 49 49 9
Width: 150
GlyphClass: 1
Flags: W
LayerCount: 2
Fore
SplineSet
100 0 m 1,0,-1
 0 0 l 1,1,-1
 0 200 l 1,2,-1
 -25 200 l 1,3,-1
 -25 250 l 1,4,-1
 75 250 l 1,5,-1
 75 225 l 1,6,-1
 100 225 l 1,7,-1
 100 0 l 1,0,-1
EndSplineSet
Validated: 1
EndChar

StartChar: two
Encoding: 50 50 10
Width: 300
GlyphClass: 1
Flags: W
LayerCount: 2
Fore
SplineSet
250 0 m 1,0,-1
 0 0 l 1,1,-1
 0 125 l 1,2,-1
 25 125 l 1,3,-1
 25 150 l 1,4,-1
 150 150 l 1,5,-1
 150 200 l 1,6,-1
 0 200 l 1,7,-1
 0 250 l 1,8,-1
 225 250 l 1,9,-1
 225 225 l 1,10,-1
 250 225 l 1,11,-1
 250 125 l 1,12,-1
 225 125 l 1,13,-1
 225 100 l 1,14,-1
 100 100 l 1,15,-1
 100 50 l 1,16,-1
 250 50 l 1,17,-1
 250 0 l 1,0,-1
EndSplineSet
Validated: 1
EndChar

StartChar: three
Encoding: 51 51 11
Width: 300
GlyphClass: 1
Flags: W
LayerCount: 2
Fore
SplineSet
250 25 m 1,0,-1
 225 25 l 1,1,-1
 225 0 l 1,2,-1
 0 0 l 1,3,-1
 0 50 l 1,4,-1
 150 50 l 1,5,-1
 150 100 l 1,6,-1
 75 100 l 1,7,-1
 75 150 l 1,8,-1
 150 150 l 1,9,-1
 150 200 l 1,10,-1
 0 200 l 1,11,-1
 0 250 l 1,12,-1
 225 250 l 1,13,-1
 225 225 l 1,14,-1
 250 225 l 1,15,-1
 250 150 l 1,16,-1
 225 150 l 1,17,-1
 225 100 l 1,18,-1
 250 100 l 1,19,-1
 250 25 l 1,0,-1
EndSplineSet
Validated: 1
EndChar

StartChar: four
Encoding: 52 52 12
Width: 300
GlyphClass: 1
Flags: W
LayerCount: 2
Fore
SplineSet
250 0 m 1,0,-1
 150 0 l 1,1,-1
 150 100 l 1,2,-1
 25 100 l 1,3,-1
 25 125 l 1,4,-1
 0 125 l 1,5,-1
 0 250 l 1,6,-1
 100 250 l 1,7,-1
 100 150 l 1,8,-1
 150 150 l 1,9,-1
 150 250 l 1,10,-1
 250 250 l 1,11,-1
 250 0 l 1,0,-1
EndSplineSet
Validated: 1
EndChar

StartChar: five
Encoding: 53 53 13
Width: 300
GlyphClass: 1
Flags: W
LayerCount: 2
Fore
SplineSet
250 25 m 1,0,-1
 225 25 l 1,1,-1
 225 0 l 1,2,-1
 0 0 l 1,3,-1
 0 50 l 1,4,-1
 150 50 l 1,5,-1
 150 100 l 1,6,-1
 25 100 l 1,7,-1
 25 125 l 1,8,-1
 0 125 l 1,9,-1
 0 250 l 1,10,-1
 250 250 l 1,11,-1
 250 200 l 1,12,-1
 100 200 l 1,13,-1
 100 150 l 1,14,-1
 225 150 l 1,15,-1
 225 125 l 1,16,-1
 250 125 l 1,17,-1
 250 25 l 1,0,-1
EndSplineSet
Validated: 1
EndChar

StartChar: six
Encoding: 54 54 14
Width: 300
GlyphClass: 1
Flags: W
LayerCount: 2
Fore
SplineSet
250 25 m 1,0,-1
 225 25 l 1,1,-1
 225 0 l 1,2,-1
 25 0 l 1,3,-1
 25 25 l 1,4,-1
 0 25 l 1,5,-1
 0 225 l 1,6,-1
 25 225 l 1,7,-1
 25 250 l 1,8,-1
 250 250 l 1,9,-1
 250 200 l 1,10,-1
 100 200 l 1,11,-1
 100 150 l 1,12,-1
 225 150 l 1,13,-1
 225 125 l 1,14,-1
 250 125 l 1,15,-1
 250 25 l 1,0,-1
150 50 m 1,16,-1
 150 100 l 1,17,-1
 100 100 l 1,18,-1
 100 50 l 1,19,-1
 150 50 l 1,16,-1
EndSplineSet
Validated: 1
EndChar

StartChar: seven
Encoding: 55 55 15
Width: 300
GlyphClass: 1
Flags: W
LayerCount: 2
Fore
SplineSet
250 0 m 1,0,-1
 150 0 l 1,1,-1
 150 200 l 1,2,-1
 0 200 l 1,3,-1
 0 250 l 1,4,-1
 225 250 l 1,5,-1
 225 225 l 1,6,-1
 250 225 l 1,7,-1
 250 0 l 1,0,-1
EndSplineSet
Validated: 1
EndChar

StartChar: eight
Encoding: 56 56 16
Width: 300
GlyphClass: 1
Flags: W
LayerCount: 2
Fore
SplineSet
250 25 m 1,0,-1
 225 25 l 1,1,-1
 225 0 l 1,2,-1
 25 0 l 1,3,-1
 25 25 l 1,4,-1
 0 25 l 1,5,-1
 0 100 l 1,6,-1
 25 100 l 1,7,-1
 25 150 l 1,8,-1
 0 150 l 1,9,-1
 0 225 l 1,10,-1
 25 225 l 1,11,-1
 25 250 l 1,12,-1
 225 250 l 1,13,-1
 225 225 l 1,14,-1
 250 225 l 1,15,-1
 250 150 l 1,16,-1
 225 150 l 1,17,-1
 225 100 l 1,18,-1
 250 100 l 1,19,-1
 250 25 l 1,0,-1
150 150 m 1,20,-1
 150 200 l 1,21,-1
 100 200 l 1,22,-1
 100 150 l 1,23,-1
 150 150 l 1,20,-1
150 50 m 1,24,-1
 150 100 l 1,25,-1
 100 100 l 1,26,-1
 100 50 l 1,27,-1
 150 50 l 1,24,-1
EndSplineSet
Validated: 1
EndChar

StartChar: nine
Encoding: 57 57 17
Width: 300
GlyphClass: 1
Flags: W
LayerCount: 2
Fore
SplineSet
250 25 m 1,0,-1
 225 25 l 1,1,-1
 225 0 l 1,2,-1
 0 0 l 1,3,-1
 0 50 l 1,4,-1
 150 50 l 1,5,-1
 150 100 l 1,6,-1
 25 100 l 1,7,-1
 25 125 l 1,8,-1
 0 125 l 1,9,-1
 0 225 l 1,10,-1
 25 225 l 1,11,-1
 25 250 l 1,12,-1
 225 250 l 1,13,-1
 225 225 l 1,14,-1
 250 225 l 1,15,-1
 250 25 l 1,0,-1
150 150 m 1,16,-1
 150 200 l 1,17,-1
 100 200 l 1,18,-1
 100 150 l 1,19,-1
 150 150 l 1,16,-1
EndSplineSet
Validated: 1
EndChar

StartChar: A
Encoding: 65 65 18
Width: 300
GlyphClass: 1
Flags: W
LayerCount: 2
Fore
SplineSet
250 0 m 1,0,-1
 150 0 l 1,1,-1
 150 100 l 1,2,-1
 100 100 l 1,3,-1
 100 0 l 1,4,-1
 0 0 l 1,5,-1
 0 225 l 1,6,-1
 25 225 l 1,7,-1
 25 250 l 1,8,-1
 225 250 l 1,9,-1
 225 225 l 1,10,-1
 250 225 l 1,11,-1
 250 0 l 1,0,-1
150 150 m 1,12,-1
 150 200 l 1,13,-1
 100 200 l 1,14,-1
 100 150 l 1,15,-1
 150 150 l 1,12,-1
EndSplineSet
Validated: 1
EndChar

StartChar: B
Encoding: 66 66 19
Width: 300
GlyphClass: 1
Flags: W
LayerCount: 2
Fore
SplineSet
250 25 m 1,0,-1
 225 25 l 1,1,-1
 225 0 l 1,2,-1
 0 0 l 1,3,-1
 0 250 l 1,4,-1
 225 250 l 1,5,-1
 225 225 l 1,6,-1
 250 225 l 1,7,-1
 250 150 l 1,8,-1
 225 150 l 1,9,-1
 225 100 l 1,10,-1
 250 100 l 1,11,-1
 250 25 l 1,0,-1
150 150 m 1,12,-1
 150 200 l 1,13,-1
 100 200 l 1,14,-1
 100 150 l 1,15,-1
 150 150 l 1,12,-1
150 50 m 1,16,-1
 150 100 l 1,17,-1
 100 100 l 1,18,-1
 100 50 l 1,19,-1
 150 50 l 1,16,-1
EndSplineSet
Validated: 1
EndChar

StartChar: C
Encoding: 67 67 20
Width: 300
GlyphClass: 1
Flags: W
LayerCount: 2
Fore
SplineSet
250 0 m 1,0,-1
 25 0 l 1,1,-1
 25 25 l 1,2,-1
 0 25 l 1,3,-1
 0 225 l 1,4,-1
 25 225 l 1,5,-1
 25 250 l 1,6,-1
 250 250 l 1,7,-1
 250 200 l 1,8,-1
 100 200 l 1,9,-1
 100 50 l 1,10,-1
 250 50 l 1,11,-1
 250 0 l 1,0,-1
EndSplineSet
Validated: 1
EndChar

StartChar: D
Encoding: 68 68 21
Width: 300
GlyphClass: 1
Flags: W
LayerCount: 2
Fore
SplineSet
250 25 m 1,0,-1
 225 25 l 1,1,-1
 225 0 l 1,2,-1
 0 0 l 1,3,-1
 0 250 l 1,4,-1
 225 250 l 1,5,-1
 225 225 l 1,6,-1
 250 225 l 1,7,-1
 250 25 l 1,0,-1
150 50 m 1,8,-1
 150 200 l 1,9,-1
 100 200 l 1,10,-1
 100 50 l 1,11,-1
 150 50 l 1,8,-1
EndSplineSet
Validated: 1
EndChar

StartChar: E
Encoding: 69 69 22
Width: 300
GlyphClass: 1
Flags: W
LayerCount: 2
Fore
SplineSet
250 0 m 1,0,-1
 25 0 l 1,1,-1
 25 25 l 1,2,-1
 0 25 l 1,3,-1
 0 225 l 1,4,-1
 25 225 l 1,5,-1
 25 250 l 1,6,-1
 250 250 l 1,7,-1
 250 200 l 1,8,-1
 100 200 l 1,9,-1
 100 150 l 1,10,-1
 175 150 l 1,11,-1
 175 100 l 1,12,-1
 100 100 l 1,13,-1
 100 50 l 1,14,-1
 250 50 l 1,15,-1
 250 0 l 1,0,-1
EndSplineSet
Validated: 1
EndChar

StartChar: F
Encoding: 70 70 23
Width: 300
GlyphClass: 1
Flags: W
LayerCount: 2
Fore
SplineSet
250 200 m 1,0,-1
 100 200 l 1,1,-1
 100 150 l 1,2,-1
 175 150 l 1,3,-1
 175 100 l 1,4,-1
 100 100 l 1,5,-1
 100 0 l 1,6,-1
 0 0 l 1,7,-1
 0 225 l 1,8,-1
 25 225 l 1,9,-1
 25 250 l 1,10,-1
 250 250 l 1,11,-1
 250 200 l 1,0,-1
EndSplineSet
Validated: 1
EndChar

StartChar: G
Encoding: 71 71 24
Width: 300
GlyphClass: 1
Flags: W
LayerCount: 2
Fore
SplineSet
250 0 m 1,0,-1
 25 0 l 1,1,-1
 25 25 l 1,2,-1
 0 25 l 1,3,-1
 0 225 l 1,4,-1
 25 225 l 1,5,-1
 25 250 l 1,6,-1
 250 250 l 1,7,-1
 250 200 l 1,8,-1
 100 200 l 1,9,-1
 100 50 l 1,10,-1
 150 50 l 1,11,-1
 150 100 l 1,12,-1
 125 100 l 1,13,-1
 125 150 l 1,14,-1
 250 150 l 1,15,-1
 250 0 l 1,0,-1
EndSplineSet
Validated: 1
EndChar

StartChar: H
Encoding: 72 72 25
Width: 300
GlyphClass: 1
Flags: W
LayerCount: 2
Fore
SplineSet
250 0 m 1,0,-1
 150 0 l 1,1,-1
 150 100 l 1,2,-1
 100 100 l 1,3,-1
 100 0 l 1,4,-1
 0 0 l 1,5,-1
 0 250 l 1,6,-1
 100 250 l 1,7,-1
 100 150 l 1,8,-1
 150 150 l 1,9,-1
 150 250 l 1,10,-1
 250 250 l 1,11,-1
 250 0 l 1,0,-1
EndSplineSet
Validated: 1
EndChar

StartChar: I
Encoding: 73 73 26
Width: 150
GlyphClass: 1
Flags: W
LayerCount: 2
Fore
SplineSet
100 0 m 1,0,-1
 0 0 l 1,1,-1
 0 250 l 1,2,-1
 100 250 l 1,3,-1
 100 0 l 1,0,-1
EndSplineSet
Validated: 1
EndChar

StartChar: J
Encoding: 74 74 27
Width: 300
GlyphClass: 1
Flags: W
LayerCount: 2
Fore
SplineSet
250 25 m 1,0,-1
 225 25 l 1,1,-1
 225 0 l 1,2,-1
 0 0 l 1,3,-1
 0 50 l 1,4,-1
 150 50 l 1,5,-1
 150 250 l 1,6,-1
 250 250 l 1,7,-1
 250 25 l 1,0,-1
EndSplineSet
Validated: 1
EndChar

StartChar: K
Encoding: 75 75 28
Width: 300
GlyphClass: 1
Flags: W
LayerCount: 2
Fore
SplineSet
250 0 m 1,0,-1
 150 0 l 1,1,-1
 150 100 l 1,2,-1
 100 100 l 1,3,-1
 100 0 l 1,4,-1
 0 0 l 1,5,-1
 0 250 l 1,6,-1
 100 250 l 1,7,-1
 100 150 l 1,8,-1
 150 150 l 1,9,-1
 150 250 l 1,10,-1
 250 250 l 1,11,-1
 250 150 l 1,12,-1
 225 150 l 1,13,-1
 225 100 l 1,14,-1
 250 100 l 1,15,-1
 250 0 l 1,0,-1
EndSplineSet
Validated: 1
EndChar

StartChar: L
Encoding: 76 76 29
Width: 300
GlyphClass: 1
Flags: W
LayerCount: 2
Fore
SplineSet
250 0 m 1,0,-1
 0 0 l 1,1,-1
 0 250 l 1,2,-1
 100 250 l 1,3,-1
 100 50 l 1,4,-1
 250 50 l 1,5,-1
 250 0 l 1,0,-1
EndSplineSet
Validated: 1
EndChar

StartChar: M
Encoding: 77 77 30
Width: 450
GlyphClass: 1
Flags: W
LayerCount: 2
Fore
SplineSet
400 0 m 1,0,-1
 300 0 l 1,1,-1
 300 200 l 1,2,-1
 250 200 l 1,3,-1
 250 0 l 1,4,-1
 150 0 l 1,5,-1
 150 200 l 1,6,-1
 100 200 l 1,7,-1
 100 0 l 1,8,-1
 0 0 l 1,9,-1
 0 250 l 1,10,-1
 375 250 l 1,11,-1
 375 225 l 1,12,-1
 400 225 l 1,13,-1
 400 0 l 1,0,-1
EndSplineSet
Validated: 1
EndChar

StartChar: N
Encoding: 78 78 31
Width: 300
GlyphClass: 1
Flags: W
LayerCount: 2
Fore
SplineSet
250 0 m 1,0,-1
 150 0 l 1,1,-1
 150 200 l 1,2,-1
 100 200 l 1,3,-1
 100 0 l 1,4,-1
 0 0 l 1,5,-1
 0 250 l 1,6,-1
 225 250 l 1,7,-1
 225 225 l 1,8,-1
 250 225 l 1,9,-1
 250 0 l 1,0,-1
EndSplineSet
Validated: 1
EndChar

StartChar: O
Encoding: 79 79 32
Width: 300
GlyphClass: 1
Flags: W
LayerCount: 2
Fore
SplineSet
250 25 m 1,0,-1
 225 25 l 1,1,-1
 225 0 l 1,2,-1
 25 0 l 1,3,-1
 25 25 l 1,4,-1
 0 25 l 1,5,-1
 0 225 l 1,6,-1
 25 225 l 1,7,-1
 25 250 l 1,8,-1
 225 250 l 1,9,-1
 225 225 l 1,10,-1
 250 225 l 1,11,-1
 250 25 l 1,0,-1
150 50 m 1,12,-1
 150 200 l 1,13,-1
 100 200 l 1,14,-1
 100 50 l 1,15,-1
 150 50 l 1,12,-1
EndSplineSet
Validated: 1
EndChar

StartChar: P
Encoding: 80 80 33
Width: 300
GlyphClass: 1
Flags: W
LayerCount: 2
Fore
SplineSet
250 125 m 1,0,-1
 225 125 l 1,1,-1
 225 100 l 1,2,-1
 100 100 l 1,3,-1
 100 0 l 1,4,-1
 0 0 l 1,5,-1
 0 250 l 1,6,-1
 225 250 l 1,7,-1
 225 225 l 1,8,-1
 250 225 l 1,9,-1
 250 125 l 1,0,-1
150 150 m 1,10,-1
 150 200 l 1,11,-1
 100 200 l 1,12,-1
 100 150 l 1,13,-1
 150 150 l 1,10,-1
EndSplineSet
Validated: 1
EndChar

StartChar: Q
Encoding: 81 81 34
Width: 300
GlyphClass: 1
Flags: W
LayerCount: 2
Fore
SplineSet
250 25 m 1,0,-1
 225 25 l 1,1,-1
 225 0 l 1,2,-1
 25 0 l 1,3,-1
 25 25 l 1,4,-1
 0 25 l 1,5,-1
 0 225 l 1,6,-1
 25 225 l 1,7,-1
 25 250 l 1,8,-1
 225 250 l 1,9,-1
 225 225 l 1,10,-1
 250 225 l 1,11,-1
 250 25 l 1,0,-1
150 50 m 1,12,-1
 150 200 l 1,13,-1
 100 200 l 1,14,-1
 100 50 l 1,15,-1
 150 50 l 1,12,-1
EndSplineSet
Validated: 1
EndChar

StartChar: R
Encoding: 82 82 35
Width: 300
GlyphClass: 1
Flags: W
LayerCount: 2
Fore
SplineSet
250 0 m 1,0,-1
 150 0 l 1,1,-1
 150 100 l 1,2,-1
 100 100 l 1,3,-1
 100 0 l 1,4,-1
 0 0 l 1,5,-1
 0 250 l 1,6,-1
 225 250 l 1,7,-1
 225 225 l 1,8,-1
 250 225 l 1,9,-1
 250 150 l 1,10,-1
 225 150 l 1,11,-1
 225 100 l 1,12,-1
 250 100 l 1,13,-1
 250 0 l 1,0,-1
150 150 m 1,14,-1
 150 200 l 1,15,-1
 100 200 l 1,16,-1
 100 150 l 1,17,-1
 150 150 l 1,14,-1
EndSplineSet
Validated: 1
EndChar

StartChar: S
Encoding: 83 83 36
Width: 300
GlyphClass: 1
Flags: W
LayerCount: 2
Fore
SplineSet
250 25 m 1,0,-1
 225 25 l 1,1,-1
 225 0 l 1,2,-1
 0 0 l 1,3,-1
 0 50 l 1,4,-1
 150 50 l 1,5,-1
 150 100 l 1,6,-1
 25 100 l 1,7,-1
 25 125 l 1,8,-1
 0 125 l 1,9,-1
 0 225 l 1,10,-1
 25 225 l 1,11,-1
 25 250 l 1,12,-1
 250 250 l 1,13,-1
 250 200 l 1,14,-1
 100 200 l 1,15,-1
 100 150 l 1,16,-1
 225 150 l 1,17,-1
 225 125 l 1,18,-1
 250 125 l 1,19,-1
 250 25 l 1,0,-1
EndSplineSet
Validated: 1
EndChar

StartChar: T
Encoding: 84 84 37
Width: 300
GlyphClass: 1
Flags: W
LayerCount: 2
Fore
SplineSet
250 200 m 1,0,-1
 175 200 l 1,1,-1
 175 0 l 1,2,-1
 75 0 l 1,3,-1
 75 200 l 1,4,-1
 0 200 l 1,5,-1
 0 250 l 1,6,-1
 250 250 l 1,7,-1
 250 200 l 1,0,-1
EndSplineSet
Validated: 1
EndChar

StartChar: U
Encoding: 85 85 38
Width: 300
GlyphClass: 1
Flags: W
LayerCount: 2
Fore
SplineSet
250 25 m 1,0,-1
 225 25 l 1,1,-1
 225 0 l 1,2,-1
 25 0 l 1,3,-1
 25 25 l 1,4,-1
 0 25 l 1,5,-1
 0 250 l 1,6,-1
 100 250 l 1,7,-1
 100 50 l 1,8,-1
 150 50 l 1,9,-1
 150 250 l 1,10,-1
 250 250 l 1,11,-1
 250 25 l 1,0,-1
EndSplineSet
Validated: 1
EndChar

StartChar: V
Encoding: 86 86 39
Width: 300
GlyphClass: 1
Flags: W
LayerCount: 2
Fore
SplineSet
250 25 m 1,0,-1
 225 25 l 1,1,-1
 225 0 l 1,2,-1
 0 0 l 1,3,-1
 0 250 l 1,4,-1
 100 250 l 1,5,-1
 100 50 l 1,6,-1
 150 50 l 1,7,-1
 150 250 l 1,8,-1
 250 250 l 1,9,-1
 250 25 l 1,0,-1
EndSplineSet
Validated: 1
EndChar

StartChar: W
Encoding: 87 87 40
Width: 450
GlyphClass: 1
Flags: W
LayerCount: 2
Fore
SplineSet
400 25 m 1,0,-1
 375 25 l 1,1,-1
 375 0 l 1,2,-1
 0 0 l 1,3,-1
 0 250 l 1,4,-1
 100 250 l 1,5,-1
 100 50 l 1,6,-1
 150 50 l 1,7,-1
 150 250 l 1,8,-1
 250 250 l 1,9,-1
 250 50 l 1,10,-1
 300 50 l 1,11,-1
 300 250 l 1,12,-1
 400 250 l 1,13,-1
 400 25 l 1,0,-1
EndSplineSet
Validated: 1
EndChar

StartChar: X
Encoding: 88 88 41
Width: 300
GlyphClass: 1
Flags: W
LayerCount: 2
Fore
SplineSet
250 0 m 1,0,-1
 150 0 l 1,1,-1
 150 100 l 1,2,-1
 100 100 l 1,3,-1
 100 0 l 1,4,-1
 0 0 l 1,5,-1
 0 100 l 1,6,-1
 25 100 l 1,7,-1
 25 150 l 1,8,-1
 0 150 l 1,9,-1
 0 250 l 1,10,-1
 100 250 l 1,11,-1
 100 150 l 1,12,-1
 150 150 l 1,13,-1
 150 250 l 1,14,-1
 250 250 l 1,15,-1
 250 150 l 1,16,-1
 225 150 l 1,17,-1
 225 100 l 1,18,-1
 250 100 l 1,19,-1
 250 0 l 1,0,-1
EndSplineSet
Validated: 1
EndChar

StartChar: Y
Encoding: 89 89 42
Width: 300
GlyphClass: 1
Flags: W
LayerCount: 2
Fore
SplineSet
250 125 m 1,0,-1
 225 125 l 1,1,-1
 225 100 l 1,2,-1
 175 100 l 1,3,-1
 175 0 l 1,4,-1
 75 0 l 1,5,-1
 75 100 l 1,6,-1
 25 100 l 1,7,-1
 25 125 l 1,8,-1
 0 125 l 1,9,-1
 0 250 l 1,10,-1
 100 250 l 1,11,-1
 100 150 l 1,12,-1
 150 150 l 1,13,-1
 150 250 l 1,14,-1
 250 250 l 1,15,-1
 250 125 l 1,0,-1
EndSplineSet
Validated: 1
EndChar

StartChar: Z
Encoding: 90 90 43
Width: 300
GlyphClass: 1
Flags: W
LayerCount: 2
Fore
SplineSet
250 0 m 1,0,-1
 0 0 l 1,1,-1
 0 125 l 1,2,-1
 25 125 l 1,3,-1
 25 150 l 1,4,-1
 150 150 l 1,5,-1
 150 200 l 1,6,-1
 0 200 l 1,7,-1
 0 250 l 1,8,-1
 250 250 l 1,9,-1
 250 125 l 1,10,-1
 225 125 l 1,11,-1
 225 100 l 1,12,-1
 100 100 l 1,13,-1
 100 50 l 1,14,-1
 250 50 l 1,15,-1
 250 0 l 1,0,-1
EndSplineSet
Validated: 1
EndChar

StartChar: bracketleft
Encoding: 91 91 44
Width: 150
GlyphClass: 1
Flags: W
LayerCount: 2
Fore
SplineSet
150 0 m 1,0,-1
 0 0 l 1,1,-1
 0 250 l 1,2,-1
 150 250 l 1,3,-1
 150 200 l 1,4,-1
 100 200 l 1,5,-1
 100 50 l 1,6,-1
 150 50 l 1,7,-1
 150 0 l 1,0,-1
EndSplineSet
Validated: 1
EndChar

StartChar: bracketright
Encoding: 93 93 45
Width: 150
GlyphClass: 1
Flags: W
LayerCount: 2
Fore
SplineSet
150 0 m 1,0,-1
 0 0 l 1,1,-1
 0 50 l 1,2,-1
 50 50 l 1,3,-1
 50 200 l 1,4,-1
 0 200 l 1,5,-1
 0 250 l 1,6,-1
 150 250 l 1,7,-1
 150 0 l 1,0,-1
EndSplineSet
Validated: 1
EndChar

StartChar: a
Encoding: 97 97 46
Width: 300
GlyphClass: 1
Flags: W
LayerCount: 2
Fore
SplineSet
250 0 m 1,0,-1
 150 0 l 1,1,-1
 150 100 l 1,2,-1
 100 100 l 1,3,-1
 100 0 l 1,4,-1
 0 0 l 1,5,-1
 0 225 l 1,6,-1
 25 225 l 1,7,-1
 25 250 l 1,8,-1
 225 250 l 1,9,-1
 225 225 l 1,10,-1
 250 225 l 1,11,-1
 250 0 l 1,0,-1
150 150 m 1,12,-1
 150 200 l 1,13,-1
 100 200 l 1,14,-1
 100 150 l 1,15,-1
 150 150 l 1,12,-1
EndSplineSet
Validated: 1
EndChar

StartChar: b
Encoding: 98 98 47
Width: 300
GlyphClass: 1
Flags: W
LayerCount: 2
Fore
SplineSet
250 25 m 1,0,-1
 225 25 l 1,1,-1
 225 0 l 1,2,-1
 0 0 l 1,3,-1
 0 250 l 1,4,-1
 225 250 l 1,5,-1
 225 225 l 1,6,-1
 250 225 l 1,7,-1
 250 150 l 1,8,-1
 225 150 l 1,9,-1
 225 100 l 1,10,-1
 250 100 l 1,11,-1
 250 25 l 1,0,-1
150 150 m 1,12,-1
 150 200 l 1,13,-1
 100 200 l 1,14,-1
 100 150 l 1,15,-1
 150 150 l 1,12,-1
150 50 m 1,16,-1
 150 100 l 1,17,-1
 100 100 l 1,18,-1
 100 50 l 1,19,-1
 150 50 l 1,16,-1
EndSplineSet
Validated: 1
EndChar

StartChar: c
Encoding: 99 99 48
Width: 300
GlyphClass: 1
Flags: W
LayerCount: 2
Fore
SplineSet
250 0 m 1,0,-1
 25 0 l 1,1,-1
 25 25 l 1,2,-1
 0 25 l 1,3,-1
 0 225 l 1,4,-1
 25 225 l 1,5,-1
 25 250 l 1,6,-1
 250 250 l 1,7,-1
 250 200 l 1,8,-1
 100 200 l 1,9,-1
 100 50 l 1,10,-1
 250 50 l 1,11,-1
 250 0 l 1,0,-1
EndSplineSet
Validated: 1
EndChar

StartChar: d
Encoding: 100 100 49
Width: 300
GlyphClass: 1
Flags: W
LayerCount: 2
Fore
SplineSet
250 25 m 1,0,-1
 225 25 l 1,1,-1
 225 0 l 1,2,-1
 0 0 l 1,3,-1
 0 250 l 1,4,-1
 225 250 l 1,5,-1
 225 225 l 1,6,-1
 250 225 l 1,7,-1
 250 25 l 1,0,-1
150 50 m 1,8,-1
 150 200 l 1,9,-1
 100 200 l 1,10,-1
 100 50 l 1,11,-1
 150 50 l 1,8,-1
EndSplineSet
Validated: 1
EndChar

StartChar: e
Encoding: 101 101 50
Width: 300
GlyphClass: 1
Flags: W
LayerCount: 2
Fore
SplineSet
250 0 m 1,0,-1
 25 0 l 1,1,-1
 25 25 l 1,2,-1
 0 25 l 1,3,-1
 0 225 l 1,4,-1
 25 225 l 1,5,-1
 25 250 l 1,6,-1
 250 250 l 1,7,-1
 250 200 l 1,8,-1
 100 200 l 1,9,-1
 100 150 l 1,10,-1
 175 150 l 1,11,-1
 175 100 l 1,12,-1
 100 100 l 1,13,-1
 100 50 l 1,14,-1
 250 50 l 1,15,-1
 250 0 l 1,0,-1
EndSplineSet
Validated: 1
EndChar

StartChar: f
Encoding: 102 102 51
Width: 300
GlyphClass: 1
Flags: W
LayerCount: 2
Fore
SplineSet
250 200 m 1,0,-1
 100 200 l 1,1,-1
 100 150 l 1,2,-1
 175 150 l 1,3,-1
 175 100 l 1,4,-1
 100 100 l 1,5,-1
 100 0 l 1,6,-1
 0 0 l 1,7,-1
 0 225 l 1,8,-1
 25 225 l 1,9,-1
 25 250 l 1,10,-1
 250 250 l 1,11,-1
 250 200 l 1,0,-1
EndSplineSet
Validated: 1
EndChar

StartChar: g
Encoding: 103 103 52
Width: 300
GlyphClass: 1
Flags: W
LayerCount: 2
Fore
SplineSet
250 0 m 1,0,-1
 25 0 l 1,1,-1
 25 25 l 1,2,-1
 0 25 l 1,3,-1
 0 225 l 1,4,-1
 25 225 l 1,5,-1
 25 250 l 1,6,-1
 250 250 l 1,7,-1
 250 200 l 1,8,-1
 100 200 l 1,9,-1
 100 50 l 1,10,-1
 150 50 l 1,11,-1
 150 100 l 1,12,-1
 125 100 l 1,13,-1
 125 150 l 1,14,-1
 250 150 l 1,15,-1
 250 0 l 1,0,-1
EndSplineSet
Validated: 1
EndChar

StartChar: h
Encoding: 104 104 53
Width: 300
GlyphClass: 1
Flags: W
LayerCount: 2
Fore
SplineSet
250 0 m 1,0,-1
 150 0 l 1,1,-1
 150 100 l 1,2,-1
 100 100 l 1,3,-1
 100 0 l 1,4,-1
 0 0 l 1,5,-1
 0 250 l 1,6,-1
 100 250 l 1,7,-1
 100 150 l 1,8,-1
 150 150 l 1,9,-1
 150 250 l 1,10,-1
 250 250 l 1,11,-1
 250 0 l 1,0,-1
EndSplineSet
Validated: 1
EndChar

StartChar: i
Encoding: 105 105 54
Width: 150
GlyphClass: 1
Flags: W
LayerCount: 2
Fore
SplineSet
100 0 m 1,0,-1
 0 0 l 1,1,-1
 0 250 l 1,2,-1
 100 250 l 1,3,-1
 100 0 l 1,0,-1
EndSplineSet
Validated: 1
EndChar

StartChar: j
Encoding: 106 106 55
Width: 300
GlyphClass: 1
Flags: W
LayerCount: 2
Fore
SplineSet
250 25 m 1,0,-1
 225 25 l 1,1,-1
 225 0 l 1,2,-1
 0 0 l 1,3,-1
 0 50 l 1,4,-1
 150 50 l 1,5,-1
 150 250 l 1,6,-1
 250 250 l 1,7,-1
 250 25 l 1,0,-1
EndSplineSet
Validated: 1
EndChar

StartChar: k
Encoding: 107 107 56
Width: 300
GlyphClass: 1
Flags: W
LayerCount: 2
Fore
SplineSet
250 0 m 1,0,-1
 150 0 l 1,1,-1
 150 100 l 1,2,-1
 100 100 l 1,3,-1
 100 0 l 1,4,-1
 0 0 l 1,5,-1
 0 250 l 1,6,-1
 100 250 l 1,7,-1
 100 150 l 1,8,-1
 150 150 l 1,9,-1
 150 250 l 1,10,-1
 250 250 l 1,11,-1
 250 150 l 1,12,-1
 225 150 l 1,13,-1
 225 100 l 1,14,-1
 250 100 l 1,15,-1
 250 0 l 1,0,-1
EndSplineSet
Validated: 1
EndChar

StartChar: l
Encoding: 108 108 57
Width: 300
GlyphClass: 1
Flags: W
LayerCount: 2
Fore
SplineSet
250 0 m 1,0,-1
 0 0 l 1,1,-1
 0 250 l 1,2,-1
 100 250 l 1,3,-1
 100 50 l 1,4,-1
 250 50 l 1,5,-1
 250 0 l 1,0,-1
EndSplineSet
Validated: 1
EndChar

StartChar: m
Encoding: 109 109 58
Width: 450
GlyphClass: 1
Flags: W
LayerCount: 2
Fore
SplineSet
400 0 m 1,0,-1
 300 0 l 1,1,-1
 300 200 l 1,2,-1
 250 200 l 1,3,-1
 250 0 l 1,4,-1
 150 0 l 1,5,-1
 150 200 l 1,6,-1
 100 200 l 1,7,-1
 100 0 l 1,8,-1
 0 0 l 1,9,-1
 0 250 l 1,10,-1
 375 250 l 1,11,-1
 375 225 l 1,12,-1
 400 225 l 1,13,-1
 400 0 l 1,0,-1
EndSplineSet
Validated: 1
EndChar

StartChar: n
Encoding: 110 110 59
Width: 300
GlyphClass: 1
Flags: W
LayerCount: 2
Fore
SplineSet
250 0 m 1,0,-1
 150 0 l 1,1,-1
 150 200 l 1,2,-1
 100 200 l 1,3,-1
 100 0 l 1,4,-1
 0 0 l 1,5,-1
 0 250 l 1,6,-1
 225 250 l 1,7,-1
 225 225 l 1,8,-1
 250 225 l 1,9,-1
 250 0 l 1,0,-1
EndSplineSet
Validated: 1
EndChar

StartChar: o
Encoding: 111 111 60
Width: 300
GlyphClass: 1
Flags: W
LayerCount: 2
Fore
SplineSet
250 25 m 1,0,-1
 225 25 l 1,1,-1
 225 0 l 1,2,-1
 25 0 l 1,3,-1
 25 25 l 1,4,-1
 0 25 l 1,5,-1
 0 225 l 1,6,-1
 25 225 l 1,7,-1
 25 250 l 1,8,-1
 225 250 l 1,9,-1
 225 225 l 1,10,-1
 250 225 l 1,11,-1
 250 25 l 1,0,-1
150 50 m 1,12,-1
 150 200 l 1,13,-1
 100 200 l 1,14,-1
 100 50 l 1,15,-1
 150 50 l 1,12,-1
EndSplineSet
Validated: 1
EndChar

StartChar: p
Encoding: 112 112 61
Width: 300
GlyphClass: 1
Flags: W
LayerCount: 2
Fore
SplineSet
250 125 m 1,0,-1
 225 125 l 1,1,-1
 225 100 l 1,2,-1
 100 100 l 1,3,-1
 100 0 l 1,4,-1
 0 0 l 1,5,-1
 0 250 l 1,6,-1
 225 250 l 1,7,-1
 225 225 l 1,8,-1
 250 225 l 1,9,-1
 250 125 l 1,0,-1
150 150 m 1,10,-1
 150 200 l 1,11,-1
 100 200 l 1,12,-1
 100 150 l 1,13,-1
 150 150 l 1,10,-1
EndSplineSet
Validated: 1
EndChar

StartChar: q
Encoding: 113 113 62
Width: 300
GlyphClass: 1
Flags: W
LayerCount: 2
Fore
SplineSet
250 25 m 1,0,-1
 225 25 l 1,1,-1
 225 0 l 1,2,-1
 25 0 l 1,3,-1
 25 25 l 1,4,-1
 0 25 l 1,5,-1
 0 225 l 1,6,-1
 25 225 l 1,7,-1
 25 250 l 1,8,-1
 225 250 l 1,9,-1
 225 225 l 1,10,-1
 250 225 l 1,11,-1
 250 25 l 1,0,-1
150 50 m 1,12,-1
 150 200 l 1,13,-1
 100 200 l 1,14,-1
 100 50 l 1,15,-1
 150 50 l 1,12,-1
EndSplineSet
Validated: 1
EndChar

StartChar: r
Encoding: 114 114 63
Width: 300
GlyphClass: 1
Flags: W
LayerCount: 2
Fore
SplineSet
250 0 m 1,0,-1
 150 0 l 1,1,-1
 150 100 l 1,2,-1
 100 100 l 1,3,-1
 100 0 l 1,4,-1
 0 0 l 1,5,-1
 0 250 l 1,6,-1
 225 250 l 1,7,-1
 225 225 l 1,8,-1
 250 225 l 1,9,-1
 250 150 l 1,10,-1
 225 150 l 1,11,-1
 225 100 l 1,12,-1
 250 100 l 1,13,-1
 250 0 l 1,0,-1
150 150 m 1,14,-1
 150 200 l 1,15,-1
 100 200 l 1,16,-1
 100 150 l 1,17,-1
 150 150 l 1,14,-1
EndSplineSet
Validated: 1
EndChar

StartChar: s
Encoding: 115 115 64
Width: 300
GlyphClass: 1
Flags: W
LayerCount: 2
Fore
SplineSet
250 25 m 1,0,-1
 225 25 l 1,1,-1
 225 0 l 1,2,-1
 0 0 l 1,3,-1
 0 50 l 1,4,-1
 150 50 l 1,5,-1
 150 100 l 1,6,-1
 25 100 l 1,7,-1
 25 125 l 1,8,-1
 0 125 l 1,9,-1
 0 225 l 1,10,-1
 25 225 l 1,11,-1
 25 250 l 1,12,-1
 250 250 l 1,13,-1
 250 200 l 1,14,-1
 100 200 l 1,15,-1
 100 150 l 1,16,-1
 225 150 l 1,17,-1
 225 125 l 1,18,-1
 250 125 l 1,19,-1
 250 25 l 1,0,-1
EndSplineSet
Validated: 1
EndChar

StartChar: t
Encoding: 116 116 65
Width: 300
GlyphClass: 1
Flags: W
LayerCount: 2
Fore
SplineSet
250 200 m 1,0,-1
 175 200 l 1,1,-1
 175 0 l 1,2,-1
 75 0 l 1,3,-1
 75 200 l 1,4,-1
 0 200 l 1,5,-1
 0 250 l 1,6,-1
 250 250 l 1,7,-1
 250 200 l 1,0,-1
EndSplineSet
Validated: 1
EndChar

StartChar: u
Encoding: 117 117 66
Width: 300
GlyphClass: 1
Flags: W
LayerCount: 2
Fore
SplineSet
250 25 m 1,0,-1
 225 25 l 1,1,-1
 225 0 l 1,2,-1
 25 0 l 1,3,-1
 25 25 l 1,4,-1
 0 25 l 1,5,-1
 0 250 l 1,6,-1
 100 250 l 1,7,-1
 100 50 l 1,8,-1
 150 50 l 1,9,-1
 150 250 l 1,10,-1
 250 250 l 1,11,-1
 250 25 l 1,0,-1
EndSplineSet
Validated: 1
EndChar

StartChar: v
Encoding: 118 118 67
Width: 300
GlyphClass: 1
Flags: W
LayerCount: 2
Fore
SplineSet
250 25 m 1,0,-1
 225 25 l 1,1,-1
 225 0 l 1,2,-1
 0 0 l 1,3,-1
 0 250 l 1,4,-1
 100 250 l 1,5,-1
 100 50 l 1,6,-1
 150 50 l 1,7,-1
 150 250 l 1,8,-1
 250 250 l 1,9,-1
 250 25 l 1,0,-1
EndSplineSet
Validated: 1
EndChar

StartChar: w
Encoding: 119 119 68
Width: 450
GlyphClass: 1
Flags: W
LayerCount: 2
Fore
SplineSet
400 25 m 1,0,-1
 375 25 l 1,1,-1
 375 0 l 1,2,-1
 0 0 l 1,3,-1
 0 250 l 1,4,-1
 100 250 l 1,5,-1
 100 50 l 1,6,-1
 150 50 l 1,7,-1
 150 250 l 1,8,-1
 250 250 l 1,9,-1
 250 50 l 1,10,-1
 300 50 l 1,11,-1
 300 250 l 1,12,-1
 400 250 l 1,13,-1
 400 25 l 1,0,-1
EndSplineSet
Validated: 1
EndChar

StartChar: x
Encoding: 120 120 69
Width: 300
GlyphClass: 1
Flags: W
LayerCount: 2
Fore
SplineSet
250 0 m 1,0,-1
 150 0 l 1,1,-1
 150 100 l 1,2,-1
 100 100 l 1,3,-1
 100 0 l 1,4,-1
 0 0 l 1,5,-1
 0 100 l 1,6,-1
 25 100 l 1,7,-1
 25 150 l 1,8,-1
 0 150 l 1,9,-1
 0 250 l 1,10,-1
 100 250 l 1,11,-1
 100 150 l 1,12,-1
 150 150 l 1,13,-1
 150 250 l 1,14,-1
 250 250 l 1,15,-1
 250 150 l 1,16,-1
 225 150 l 1,17,-1
 225 100 l 1,18,-1
 250 100 l 1,19,-1
 250 0 l 1,0,-1
EndSplineSet
Validated: 1
EndChar

StartChar: y
Encoding: 121 121 70
Width: 300
GlyphClass: 1
Flags: W
LayerCount: 2
Fore
SplineSet
250 125 m 1,0,-1
 225 125 l 1,1,-1
 225 100 l 1,2,-1
 175 100 l 1,3,-1
 175 0 l 1,4,-1
 75 0 l 1,5,-1
 75 100 l 1,6,-1
 25 100 l 1,7,-1
 25 125 l 1,8,-1
 0 125 l 1,9,-1
 0 250 l 1,10,-1
 100 250 l 1,11,-1
 100 150 l 1,12,-1
 150 150 l 1,13,-1
 150 250 l 1,14,-1
 250 250 l 1,15,-1
 250 125 l 1,0,-1
EndSplineSet
Validated: 1
EndChar

StartChar: z
Encoding: 122 122 71
Width: 300
GlyphClass: 1
Flags: W
LayerCount: 2
Fore
SplineSet
250 0 m 1,0,-1
 0 0 l 1,1,-1
 0 125 l 1,2,-1
 25 125 l 1,3,-1
 25 150 l 1,4,-1
 150 150 l 1,5,-1
 150 200 l 1,6,-1
 0 200 l 1,7,-1
 0 250 l 1,8,-1
 250 250 l 1,9,-1
 250 125 l 1,10,-1
 225 125 l 1,11,-1
 225 100 l 1,12,-1
 100 100 l 1,13,-1
 100 50 l 1,14,-1
 250 50 l 1,15,-1
 250 0 l 1,0,-1
EndSplineSet
Validated: 1
EndChar

StartChar: colon
Encoding: 58 58 72
Width: 109
Flags: W
LayerCount: 2
Fore
SplineSet
0 92 m 5,0,-1
 67 92 l 5,1,-1
 67 29 l 5,2,-1
 0 29 l 5,3,-1
 0 92 l 5,0,-1
0 230 m 5,4,-1
 67 230 l 5,5,-1
 67 166 l 5,6,-1
 0 166 l 5,7,-1
 0 230 l 5,4,-1
EndSplineSet
Validated: 1
EndChar

StartChar: degree
Encoding: 176 176 73
Width: 319
Flags: W
LayerCount: 2
Fore
SplineSet
203.224609375 182.405273438 m 5,0,-1
 184.26953125 182.405273438 l 5,1,-1
 184.26953125 163.810546875 l 5,2,-1
 94.0458984375 163.810546875 l 5,3,-1
 94.0458984375 182.405273438 l 5,4,-1
 75.0908203125 182.405273438 l 5,5,-1
 75.0908203125 270.916015625 l 5,6,-1
 94.0458984375 270.916015625 l 5,7,-1
 94.0458984375 289.510742188 l 5,8,-1
 184.26953125 289.510742188 l 5,9,-1
 184.26953125 270.916015625 l 5,10,-1
 203.224609375 270.916015625 l 5,11,-1
 203.224609375 182.405273438 l 5,0,-1
166.831054688 201 m 5,12,-1
 166.831054688 253.80859375 l 5,13,-1
 113 253.80859375 l 5,14,-1
 113 201 l 5,15,-1
 166.831054688 201 l 5,12,-1
EndSplineSet
Validated: 1
EndChar

StartChar: bar
Encoding: 124 124 74
Width: 150
Flags: W
LayerCount: 2
Fore
SplineSet
100 0 m 1,0,-1
 52 0 l 1,1,-1
 52 276 l 5,2,-1
 100 276 l 5,3,-1
 100 0 l 1,0,-1
EndSplineSet
EndChar

StartChar: slash
Encoding: 47 47 75
Width: 161
Flags: W
LayerCount: 2
Fore
SplineSet
63 0 m 1,0,-1
 1 0 l 1,1,-1
 99 276 l 1,2,-1
 161 276 l 1,3,-1
 63 0 l 1,0,-1
EndSplineSet
EndChar

StartChar: period
Encoding: 46 46 76
Width: 109
Flags: W
LayerCount: 2
Fore
SplineSet
0 84 m 5,0,-1
 67 84 l 5,1,-1
 67 21 l 5,2,-1
 0 21 l 5,3,-1
 0 84 l 5,0,-1
EndSplineSet
Validated: 1
EndChar

StartChar: hyphen
Encoding: 45 45 77
Width: 348
Flags: W
LayerCount: 2
Fore
SplineSet
78 120 m 5,0,-1
 78 160 l 5,1,-1
 256 160 l 5,2,-1
 256 120 l 5,3,-1
 78 120 l 5,0,-1
EndSplineSet
EndChar

StartChar: greater
Encoding: 62 62 78
Width: 210
Flags: W
LayerCount: 2
Fore
SplineSet
179 127 m 5,0,-1
 132 127 l 5,1,-1
 45.16796875 196.482421875 l 5,2,-1
 92.1669921875 196.482421875 l 5,3,-1
 179 127 l 5,0,-1
92.1669921875 67.810546875 m 5,4,-1
 45.16796875 67.810546875 l 5,5,-1
 132 127 l 5,6,-1
 179 127 l 5,7,-1
 92.1669921875 67.810546875 l 5,4,-1
EndSplineSet
EndChar

StartChar: less
Encoding: 60 60 79
Width: 210
Flags: W
LayerCount: 2
Fore
SplineSet
34.73828125 138.444335938 m 5,0,-1
 82.4658203125 138.256835938 l 5,1,-1
 168.7890625 68.1435546875 l 5,2,-1
 121.0625 68.3310546875 l 5,3,-1
 34.73828125 138.444335938 l 5,0,-1
122 197 m 5,4,-1
 169.7265625 196.8125 l 5,5,-1
 82.4658203125 138.256835938 l 5,6,-1
 34.73828125 138.444335938 l 5,7,-1
 122 197 l 5,4,-1
EndSplineSet
EndChar

StartChar: exclam
Encoding: 33 33 80
Width: 150
Flags: W
LayerCount: 2
Fore
SplineSet
0 63 m 5,0,-1
 67 63 l 5,1,-1
 67 0 l 5,2,-1
 0 0 l 5,3,-1
 0 63 l 5,0,-1
67 105 m 1,4,-1
 0 105 l 1,5,-1
 0 250 l 1,6,-1
 67 250 l 1,7,-1
 67 105 l 1,4,-1
EndSplineSet
EndChar

StartChar: equal
Encoding: 61 61 81
Width: 348
Flags: W
LayerCount: 2
Fore
SplineSet
78 120 m 5,0,-1
 78 160 l 5,1,-1
 256 160 l 5,2,-1
 256 120 l 5,3,-1
 78 120 l 5,0,-1
78 55 m 1,4,-1
 78 95 l 1,5,-1
 256 95 l 1,6,-1
 256 55 l 1,7,-1
 78 55 l 1,4,-1
EndSplineSet
EndChar

StartChar: quotesingle
Encoding: 39 39 82
Width: 109
Flags: W
LayerCount: 2
Fore
SplineSet
19 272 m 1,0,-1
 76 272 l 1,1,-1
 66 189 l 1,2,-1
 26 190 l 5,3,-1
 19 272 l 1,0,-1
EndSplineSet
EndChar

StartChar: comma
Encoding: 44 44 83
Width: 9
Flags: W
LayerCount: 2
Fore
SplineSet
-81 81 m 1,0,-1
 -28 81 l 1,1,-1
 -60 0 l 1,2,-1
 -100 0 l 1,3,-1
 -81 81 l 1,0,-1
EndSplineSet
EndChar

StartChar: question
Encoding: 63 63 84
Width: 300
Flags: WO
LayerCount: 2
Fore
SplineSet
139.302734375 63.8505859375 m 1,0,-1
 178 63.8916015625 l 1,1,-1
 178 32 l 1,2,-1
 139.302734375 31.958984375 l 1,3,-1
 139.302734375 63.8505859375 l 1,0,-1
177.8203125 89.2705078125 m 1,4,-1
 139 89.0615234375 l 1,5,-1
 139 157.5390625 l 1,6,-1
 177.8203125 157.748046875 l 1,7,-1
 177.8203125 89.2705078125 l 1,4,-1
196.166992188 208.731445312 m 1,8,-1
 196.166992188 238.919921875 l 1,9,-1
 180.877929688 238.919921875 l 1,10,-1
 180.877929688 208.731445312 l 1,11,-1
 196.166992188 208.731445312 l 1,8,-1
196.166992188 208.731445312 m 1025,12,-1
228.276367188 155.064453125 m 1,13,-1
 209.1640625 155.064453125 l 1,14,-1
 209.1640625 138.293945312 l 1,15,-1
 139.595703125 138.293945312 l 1,16,-1
 139.595703125 157.748046875 l 1,17,-1
 177.8203125 157.748046875 l 1,18,-1
 177.8203125 180.556640625 l 1,19,-1
 196.166992188 180.556640625 l 1,20,-1
 196.166992188 208.731445312 l 1,21,-1
 113.603515625 208.731445312 l 1,22,-1
 113.603515625 248.311523438 l 1,23,-1
 95.2548828125 248.311523438 l 1,24,-1
 95.2548828125 275.145507812 l 1,25,-1
 209.1640625 275.815429688 l 1,26,-1
 209.1640625 259.044921875 l 1,27,-1
 228.276367188 259.044921875 l 1,28,-1
 228.276367188 155.064453125 l 1,13,-1
180.877929688 208.731445312 m 1,29,-1
 180.877929688 248.311523438 l 1,30,-1
 113.603515625 248.311523438 l 1,31,-1
 113.603515625 208.731445312 l 1,32,-1
 180.877929688 208.731445312 l 1,29,-1
EndSplineSet
EndChar
